<?xml version="1.0" encoding="utf-8"?>
<!-- Generator: Adobe Illustrator 16.0.0, SVG Export Plug-In . SVG Version: 6.00 Build 0)  -->
<!DOCTYPE svg PUBLIC "-//W3C//DTD SVG 1.1//EN" "http://www.w3.org/Graphics/SVG/1.1/DTD/svg11.dtd">
<svg version="1.1" id="Layer_1" xmlns="http://www.w3.org/2000/svg" xmlns:xlink="http://www.w3.org/1999/xlink" x="0px" y="0px"
	 width="2010.477px" height="2324.196px" viewBox="0 0 2010.477 2324.196" enable-background="new 0 0 2010.477 2324.196"
	 xml:space="preserve">
<polygon fill="none" stroke="#000000" stroke-miterlimit="10" points="1662.766,1813.594 1631.508,1673.114 1600.251,1532.635 
	1560.816,1401.389 1526.736,1265.915 1532.643,1181.512 1549.732,1057.392 1564.786,961.972 1580.812,860.27 1586.915,820.407 
	1593.02,780.546 1570.139,767.135 1522.127,716.477 1457.373,643.938 1428.617,624.75 1353.896,596.35 1207.055,548.51 
	1111.172,519.255 965.991,469.294 927.296,448.497 842.614,393.164 774.359,332.766 658.367,165.149 576.893,195.952 
	400.839,295.241 505.109,512.089 471.656,786.076 495.408,923.293 535.816,1217.022 531.584,1298.12 514.484,1362.959 
	466.878,1537.307 410.376,1756.206 384.652,1907.76 365.314,2060.389 549.77,2065.352 1017.171,1990.147 1339.969,1901.872 
	1662.766,1813.594 "/>
</svg>
