<?xml version="1.0" encoding="utf-8"?>
<!-- Generator: Adobe Illustrator 16.0.0, SVG Export Plug-In . SVG Version: 6.00 Build 0)  -->
<!DOCTYPE svg PUBLIC "-//W3C//DTD SVG 1.1//EN" "http://www.w3.org/Graphics/SVG/1.1/DTD/svg11.dtd">
<svg version="1.1" id="Layer_1" xmlns="http://www.w3.org/2000/svg" xmlns:xlink="http://www.w3.org/1999/xlink" x="0px" y="0px"
	 width="3600px" height="3600px" viewBox="0 0 3600 3600" enable-background="new 0 0 3600 3600" xml:space="preserve">
<polygon fill="none" stroke="#000000" stroke-miterlimit="10" points="911.206,1226.816 1291.846,544.497 1495.121,657.454 
	1791.131,814.538 1821.693,830.836 2020.354,918.907 2022.098,919.646 2023.843,920.387 2287.527,1031.734 2432.73,1093.868 
	2569.246,1159.218 2688.056,1224.553 2629.932,1332.923 2557.62,1493.605 2529.512,1633.177 2593.161,1778.871 2541.112,1935.923 
	2483.878,2232.604 2487.094,2272.266 2534.423,2464.584 2599.174,2753.225 2621.706,2904.415 2631.266,2988.459 2638.938,3057.291 
	2566.801,3055.454 2282.765,3013.541 2152.114,2981.95 1970.513,2936.396 1704.408,2868.241 1340.854,2771.514 1353.697,2706.689 
	1413.872,2493.354 1485.525,2267.105 1481.945,2058.668 1466.929,1988.92 1408.729,1747.805 1475.332,1647.874 1504.498,1580.449 
	911.206,1226.816 "/>
</svg>
